HIERARCHY
ROOT RootJoint
{
    OFFSET   0.000000   0.000000   0.000000
    CHANNELS 6 Xposition Yposition Zposition Xrotation Yrotation Zrotation
    JOINT pelvis_lowerback
    {
        OFFSET   0.000000   0.093605   0.000000
        CHANNELS 3 Xrotation Yrotation Zrotation
        JOINT lowerback_torso
        {
            OFFSET   0.000000   0.100000   0.000000
            CHANNELS 3 Xrotation Yrotation Zrotation
            JOINT torso_head
            {
                OFFSET   0.000000   0.282350   0.000000
                CHANNELS 3 Xrotation Yrotation Zrotation
                End Site
                {
                    OFFSET   0.000000   0.192650   0.000000
                }
            }
            JOINT rTorso_Clavicle
            {
                OFFSET  -0.001000   0.157500   0.000000
                CHANNELS 3 Xrotation Yrotation Zrotation
                JOINT rShoulder
                {
                    OFFSET  -0.117647   0.000000   0.000000
                    CHANNELS 3 Xrotation Yrotation Zrotation
                    JOINT rElbow
                    {
                        OFFSET  -0.245000   0.000000   0.000000
                        CHANNELS 3 Xrotation Yrotation Zrotation
                        JOINT rWrist
                        {
                            OFFSET  -0.240000   0.000000   0.000000
                            CHANNELS 3 Xrotation Yrotation Zrotation
                            End Site
                            {
                                OFFSET  -0.116353  -0.002500   0.000000
                            }
                        }
                    }
                }
            }
            JOINT lTorso_Clavicle
            {
                OFFSET   0.001000   0.157500   0.000000
                CHANNELS 3 Xrotation Yrotation Zrotation
                JOINT lShoulder
                {
                    OFFSET   0.117647   0.000000   0.000000
                    CHANNELS 3 Xrotation Yrotation Zrotation
                    JOINT lElbow
                    {
                        OFFSET   0.245000   0.000000   0.000000
                        CHANNELS 3 Xrotation Yrotation Zrotation
                        JOINT lWrist
                        {
                            OFFSET   0.240000   0.000000   0.000000
                            CHANNELS 3 Xrotation Yrotation Zrotation
                            End Site
                            {
                                OFFSET   0.116353  -0.002500   0.000000
                            }
                        }
                    }
                }
            }
        }
    }
    JOINT rHip
    {
        OFFSET  -0.100000  -0.051395   0.000000
        CHANNELS 3 Xrotation Yrotation Zrotation
        JOINT rKnee
        {
            OFFSET   0.000000  -0.410000   0.000000
            CHANNELS 3 Xrotation Yrotation Zrotation
            JOINT rAnkle
            {
                OFFSET   0.000000  -0.390000   0.000000
                CHANNELS 3 Xrotation Yrotation Zrotation
                JOINT rToeJoint
                {
                    OFFSET   0.000000  -0.050000   0.130000
                    CHANNELS 3 Xrotation Yrotation Zrotation
                    End Site
                    {
                        OFFSET  -0.010000   0.002000   0.060000
                    }
                }
            }
        }
    }
    JOINT lHip
    {
        OFFSET   0.100000  -0.051395   0.000000
        CHANNELS 3 Xrotation Yrotation Zrotation
        JOINT lKnee
        {
            OFFSET   0.000000  -0.410000   0.000000
            CHANNELS 3 Xrotation Yrotation Zrotation
            JOINT lAnkle
            {
                OFFSET   0.000000  -0.390000   0.000000
                CHANNELS 3 Xrotation Yrotation Zrotation
                JOINT lToeJoint
                {
                    OFFSET   0.000000  -0.050000   0.130000
                    CHANNELS 3 Xrotation Yrotation Zrotation
                    End Site
                    {
                        OFFSET   0.010000   0.002000   0.060000
                    }
                }
            }
        }
    }
}
MOTION
Frames: 17
Frame Time:   0.008333
 -2.376719   0.925631   3.975860   0.000000   0.000000   0.000000   0.000000   0.000000   0.000000   0.000000   0.000000   0.000000   0.000000   0.000000   0.000000   0.000000   0.000000   0.000000   0.000000   0.000000   0.000000   0.000000   0.000000   0.000000   0.000000   0.000000   0.000000   0.000000   0.000000   0.000000   0.000000   0.000000   0.000000   0.000000   0.000000   0.000000   0.000000   0.000000   0.000000   0.000000   0.000000   0.000000   0.000000   0.000000   0.000000   0.000000   0.000000   0.000000   0.000000   0.000000   0.000000   0.000000   0.000000   0.000000   0.000000   0.000000   0.000000   0.000000   0.000000   0.000000   0.000000   0.000000   0.000000
 -2.376446   0.926148   3.976074  -0.831175   0.139842  -0.001106   0.900399   0.053479   0.082013   0.125204  -0.159681  -0.025659  -0.136990   0.121967   0.034615   0.070203  -0.204860   0.165602   0.776250   0.270803   2.134773   0.017864   0.865713  -0.008010   0.305612  -0.620169  -2.466898  -0.012365   0.106503  -0.371613   0.666453  -0.327537  -2.087017   0.016993  -0.806165   0.006105   0.294495   0.607038   2.620593   0.625895  -0.027942  -0.163695   1.101424   0.001611   0.001057  -1.253373  -0.469172  -0.112666  -0.179304  -0.000434   0.000557   0.668184  -0.267763   0.112140   0.839534  -0.000810  -0.000930  -0.810287  -0.126866   0.092370   0.394955  -0.000696  -0.000878
 -2.376086   0.927047   3.976388  -1.719473   0.333741   0.003063   1.742426   0.091255   0.183055   0.315379  -0.340432  -0.044419  -0.242731   0.241030   0.079490   0.144670  -0.314552   1.011088   1.525404   0.652049   4.812525   0.041596   1.724009  -0.013939   0.637191  -0.937684  -4.207884  -0.018708   0.087657  -1.462556   1.300472  -0.788550  -4.752419   0.039909  -1.617600   0.010637   0.611518   0.889621   4.480246   1.301298  -0.066410  -0.455871   2.316479   0.004482   0.002356  -2.423719  -0.912304  -0.229986  -0.397941  -0.001130   0.000985   1.386084  -0.522345   0.326361   1.770775  -0.002398  -0.001181  -1.564456  -0.248356   0.176497   0.733079  -0.001441  -0.001229
 -2.375695   0.927926   3.976765  -2.569279   0.549863   0.011659   2.502284   0.117059   0.287890   0.483595  -0.523811  -0.057208  -0.344312   0.352601   0.127316   0.213582  -0.352069   2.281991   2.237852   1.118458   7.845049   0.065220   2.545132  -0.017778   0.961787  -1.089422  -5.163379  -0.029508  -0.009485  -2.983518   1.892424  -1.341379  -7.788192   0.062860  -2.400259   0.013500   0.924434   0.981282   5.516678   1.957838  -0.111433  -0.845216   3.488635   0.007733   0.003323  -3.514844  -1.325313  -0.349022  -0.598651  -0.001801   0.001200   2.085308  -0.750085   0.630734   2.669210  -0.004301  -0.000899  -2.267214  -0.361295   0.253993   1.040490  -0.002181  -0.001292
 -2.375295   0.928497   3.977185  -3.365539   0.771560   0.023599   3.190434   0.136482   0.390994   0.621171  -0.702407  -0.066047  -0.446783   0.456761   0.174604   0.276050  -0.344736   3.798891   2.911204   1.655383  11.115903   0.085870   3.323550  -0.020116   1.277525  -1.143046  -5.541313  -0.046273  -0.147860  -4.742131   2.439742  -1.962917 -11.068880   0.082954  -3.145216   0.015156   1.230802   0.963546   5.954695   2.580763  -0.161991  -1.308689   4.592099   0.010864   0.003817  -4.534227  -1.709875  -0.468357  -0.787434  -0.002412   0.001296   2.753682  -0.953296   1.010741   3.515008  -0.006210  -0.000361  -2.923493  -0.466236   0.325613   1.316625  -0.002830  -0.001203
 -2.374912   0.928543   3.977639  -4.108439   0.990192   0.039114   3.818156   0.152224   0.487549   0.734086  -0.873450  -0.077576  -0.548916   0.553965   0.221398   0.331948  -0.311085   5.443183   3.543110   2.252034  14.546796   0.102328   4.057485  -0.021429   1.582991  -1.136550  -5.528650  -0.068416  -0.305635  -6.630553   2.931571  -2.626281 -14.457576   0.098815  -3.849456   0.015934   1.528232   0.880367   5.966206   3.167085  -0.216899  -1.827957   5.625394   0.013602   0.003886  -5.487068  -2.067754  -0.586890  -0.965499  -0.002934   0.001322   3.389512  -1.134816   1.451909   4.307791  -0.007959   0.000270  -3.536513  -0.563883   0.391892   1.564686  -0.003356  -0.001044
 -2.374594   0.927890   3.978119  -4.801033   1.200735   0.059942   4.395083   0.165013   0.569550   0.829510  -1.036748  -0.105088  -0.649126   0.644693   0.269382   0.381414  -0.262177   7.139523   4.131103   2.900984  18.087446   0.114344   4.747340  -0.022055   1.877015  -1.091975  -5.259004  -0.094017  -0.471551  -8.601693   3.349853  -3.291699 -17.770308   0.109870  -4.513628   0.016000   1.815144   0.750757   5.640737   3.716650  -0.274893  -2.386760   6.591706   0.015796   0.003633  -6.377842  -2.400648  -0.703762  -1.133123  -0.003346   0.001304   3.993203  -1.297069   1.941967   5.050449  -0.009475   0.000900  -4.109058  -0.654865   0.453265   1.788086  -0.003754  -0.000860
 -2.374300   0.925905   3.977900  -5.037874   1.301259   0.080126   4.669642   0.168116   0.668100   0.803350  -1.173597  -0.187305  -0.896255   0.597697   0.250946   0.454833  -0.065197   8.187266   4.681763   3.587272  21.817512   0.122635   5.470279  -0.023414   2.079692  -1.018235  -4.158876  -0.008599  -0.641697  -9.774036   3.630686  -3.819681 -21.254629   0.115247  -5.176933   0.016347   2.036550   0.489705   4.423627   3.619700  -0.594885  -2.936885   7.635448   0.017305  -0.000082  -6.860853  -2.812556  -0.692327  -1.035436  -0.002205   0.000505   4.151323  -1.402587   2.373219   5.301332  -0.008538   0.000843  -4.471811  -0.675666   0.505135   2.047012  -0.004126  -0.000662
 -2.374025   0.922781   3.977405  -5.215652   1.377043   0.093737   4.973332   0.172438   0.767090   0.767755  -1.288497  -0.257134  -1.144912   0.545200   0.220431   0.502979   0.169475   9.055792   5.143388   4.292830  25.234795   0.124998   6.159249  -0.024385   2.278747  -0.875065  -3.034158   0.059334  -0.817545 -10.707377   3.862290  -4.332213 -24.411428   0.114772  -5.797715   0.016608   2.243703   0.217393   3.231383   3.453857  -0.909299  -3.452309   8.581159   0.017678  -0.003019  -7.306802  -3.201263  -0.685791  -0.906309  -0.001181  -0.000317   4.223998  -1.503672   2.764917   5.431156  -0.007280   0.000713  -4.815020  -0.695273   0.553468   2.280748  -0.004224  -0.000539
 -2.373752   0.918610   3.976786  -5.371558   1.444453   0.100118   5.294134   0.184104   0.870346   0.750555  -1.386137  -0.307525  -1.372576   0.495339   0.188319   0.530003   0.415848   9.791847   5.526791   4.993867  28.368789   0.123238   6.810853  -0.024884   2.472454  -0.692233  -2.050919   0.107401  -0.996714 -11.473693   4.048352  -4.830189 -27.283650   0.110715  -6.381096   0.016616   2.440454  -0.059173   2.223353   3.278614  -1.201747  -3.930748   9.446651   0.017342  -0.005058  -7.723940  -3.564140  -0.682884  -0.786998  -0.000443  -0.000889   4.247678  -1.600157   3.119875   5.519081  -0.006096   0.000592  -5.137046  -0.714256   0.598368   2.491421  -0.004129  -0.000444
 -2.373357   0.917724   3.976417  -5.632541   1.364870   0.693753   5.684161   0.235891   0.505858   0.798147  -1.444775  -0.547615  -1.579843   0.449523   0.139959   0.542933   0.674864  10.733474   5.836533   5.692551  31.382578   0.120556   7.422207  -0.024817   2.659270  -0.508314  -1.221619   0.150855  -1.161600 -12.309468   4.202308  -5.293860 -29.946792   0.105541  -6.915059   0.016242   2.626084  -0.279948   1.467017   3.216642  -1.452863  -4.911117  10.230292   0.016012  -0.006861  -8.102867  -3.906110  -0.685446  -0.594246   0.000300  -0.001834   4.213016  -1.602981   2.478812   6.049726  -0.004691   0.000400  -5.221434  -0.697608   0.347756   1.928720  -0.004741  -0.000303
 -2.373500   0.917481   3.976203  -5.859936   1.296607   0.901539   6.029603   0.291313   0.506881   0.847641  -1.488214  -0.665036  -1.765522   0.407141   0.088357   0.550665   0.917246  11.505463   6.092935   6.361213  34.172349   0.115687   7.998062  -0.024171   2.836182  -0.294956  -0.338757   0.198780  -1.306089 -13.063798   4.329268  -5.734409 -32.477893   0.099024  -7.417559   0.015636   2.799772  -0.504863   0.637073   3.046806  -1.746578  -5.252550  10.957850   0.013059  -0.008205  -8.428177  -4.254416  -0.630492  -0.441252   0.000323  -0.002450   4.259835  -1.602469   2.263992   6.413313  -0.003755   0.000214  -5.350167  -0.659310   0.333790   1.718032  -0.003823  -0.000251
 -2.373863   0.917271   3.976104  -6.046823   1.277374   1.079678   6.336400   0.327272   0.523657   0.885225  -1.538580  -0.735159  -1.937745   0.366793   0.051310   0.558968   1.132418  12.160977   6.307141   6.988471  36.748444   0.109087   8.535220  -0.023134   3.002253  -0.084597   0.493000   0.241894  -1.436571 -13.693976   4.432742  -6.146600 -34.807785   0.091391  -7.887059   0.014747   2.963651  -0.726850  -0.154355   2.879679  -2.002097  -5.477768  11.635404   0.010242  -0.008459  -8.764155  -4.555588  -0.621114  -0.334363   0.000275  -0.002520   4.307841  -1.626158   2.097638   6.698028  -0.003039   0.000139  -5.489338  -0.639580   0.346481   1.715961  -0.003058  -0.000201
 -2.374569   0.917142   3.976207  -6.149910   1.278126   1.203984   6.500512   0.314814   0.470503   0.948822  -1.545898  -0.675448  -2.068623   0.253140  -0.008218   0.535692   1.298945  12.378769   6.471294   7.520285  38.867526   0.097751   8.994090  -0.021140   3.109851   0.310315   2.037618   0.370565  -1.576764 -13.863320   4.443089  -6.585010 -36.867510   0.081797  -8.331470   0.013913   3.088132  -0.975289  -1.472839   2.780057  -2.212578  -5.598161  12.017614   0.007961  -0.007544  -8.857420  -4.682888  -0.697200  -0.085719   0.000353  -0.002770   4.304313  -1.704779   2.005986   6.952526  -0.002520  -0.000006  -5.712100  -0.553512   0.402411   1.815968  -0.002525  -0.000132
 -2.375519   0.917058   3.976399  -6.205987   1.266195   1.292272   6.629167   0.299724   0.418301   0.978650  -1.553633  -0.613434  -2.189416   0.145096  -0.059171   0.503661   1.443298  12.313450   6.618332   7.995375  40.657165   0.085434   9.415508  -0.019002   3.203851   0.668706   3.334589   0.478421  -1.702424 -13.772744   4.442172  -6.980705 -38.621458   0.071557  -8.745108   0.012950   3.205202  -1.208752  -2.568823   2.681186  -2.404768  -5.663620  12.316217   0.006143  -0.006600  -8.957385  -4.798032  -0.770290   0.157349   0.000352  -0.002911   4.291305  -1.772272   1.966287   7.151150  -0.002116  -0.000105  -5.952757  -0.463024   0.462880   1.994625  -0.002195  -0.000055
 -2.376675   0.916998   3.976663  -6.230707   1.235089   1.355347   6.735824   0.284385   0.365279   0.984455  -1.562267  -0.561699  -2.302441   0.044369  -0.105135   0.465691   1.570021  12.058532   6.751145   8.422371  42.187675   0.073342   9.803011  -0.016856   3.291157   0.970617   4.324242   0.568899  -1.814671 -13.508944   4.433488  -7.337148 -40.129104   0.061597  -9.128256   0.011946   3.316736  -1.409283  -3.382015   2.576158  -2.587041  -5.691356  12.569388   0.004692  -0.005764  -9.058244  -4.906604  -0.836338   0.378391   0.000297  -0.002962   4.279090  -1.837181   1.963031   7.304121  -0.001791  -0.000187  -6.200566  -0.379903   0.523702   2.159606  -0.001938  -0.000036
 -2.378010   0.916950   3.976995  -6.233978   1.183927   1.398353   6.826152   0.268380   0.309635   0.974121  -1.572041  -0.522081  -2.407993  -0.049537  -0.147840   0.424566   1.681847  11.677815   6.872407   8.807574  43.510994   0.062107  10.159489  -0.014784   3.374615   1.220521   5.064217   0.645958  -1.914929 -13.132401   4.419643  -7.659255 -41.440235   0.052428  -9.483043   0.010961   3.424209  -1.576891  -3.966439   2.466414  -2.760593  -5.688985  12.793032   0.003532  -0.005049  -9.155326  -5.009200  -0.895441   0.579869   0.000214  -0.002955   4.271468  -1.900439   1.988994   7.422916  -0.001523  -0.000250  -6.449202  -0.303964   0.584293   2.309975  -0.001731  -0.000059
